<?xml version="1.0" encoding="UTF-8"?>
<svg width="47px" height="49px" viewBox="0 0 47 49" version="1.1" xmlns="http://www.w3.org/2000/svg" xmlns:xlink="http://www.w3.org/1999/xlink">
    <title>logo-normal</title>
    <g id="Page-1" stroke="none" stroke-width="1" fill="none" fill-rule="evenodd">
        <g id="logo-normal" transform="translate(0.844818, 0.000000)" fill-rule="nonzero">
            <path d="M26.0708899,0.4540711 C27.3973308,0.0622 28.6502211,-0.3079433 29.5968853,0.3995058 C30.3844244,0.9880507 30.7356528,2.1621871 30.7356528,4.2066246 C30.7356528,4.4487225 30.7303088,4.6903986 30.7204645,4.9300355 C33.2243467,5.4129657 37.7672519,6.6314012 37.7672519,9.173043 C37.7672519,11.795267 32.9190346,13.0217185 30.3110145,13.491359 L30.3110145,13.491359 L29.8913687,18.0336314 L35.0749229,21.6409121 C35.2458611,21.7598164 35.3552025,21.9483336 35.3736956,22.1557657 C35.3921184,22.3631276 35.317724,22.5680284 35.1704824,22.7152701 L35.1704824,22.7152701 L34.2170678,23.6686846 L36.674682,24.4880769 C39.2628731,25.3507838 41.0017875,27.7633957 41.0017875,30.4914452 L41.0017875,30.4914452 L41.0017875,35.2968401 C41.0017875,35.6851953 40.6869828,36 40.2986276,36 L40.2986276,36 L5.7031599,36 C5.3148047,36 5,35.6851953 5,35.2968401 L5,35.2968401 L5,30.4914452 C5,27.7633957 6.7389145,25.3508541 9.3271758,24.4880769 L9.3271758,24.4880769 L11.7847197,23.6686846 L10.8312348,22.7152701 C10.6839932,22.5680284 10.6095988,22.3631276 10.6280216,22.1557657 C10.6465147,21.9484039 10.7558561,21.7598164 10.9267943,21.6409121 L10.9267943,21.6409121 L16.1103485,18.0336314 L15.6907027,13.491359 C13.0829638,13.0217888 8.2345356,11.7953373 8.2345356,9.173043 C8.2345356,6.6333701 12.7702686,5.414372 15.2812527,4.9300355 C15.2714084,4.6906095 15.2661347,4.4488632 15.2661347,4.2066246 C15.2661347,2.1621871 15.6173631,0.9880507 16.4047616,0.3995058 C17.3514258,-0.307873 18.6043161,0.0621297 19.9307569,0.4540711 C20.864272,0.7298504 21.9222465,1.042405 23.0008234,1.042405 C24.0794004,1.042405 25.1374452,0.7298504 26.0708899,0.4540711 Z M12.8964155,24.7805211 L9.7718541,25.8222525 C7.7587776,26.4932077 6.4063198,28.3696602 6.4063198,30.4914452 L6.4063198,30.4914452 L6.4063198,34.5936802 L14.1993708,34.5936802 L10.7517075,29.6520129 C10.6434911,29.4969662 10.6023563,29.3048629 10.637444,29.119088 C10.6725316,28.9333132 10.7810292,28.7694769 10.9383261,28.6646358 L10.9383261,28.6646358 L14.4436486,26.3277541 L12.8964155,24.7805211 Z M16.4165043,19.5338934 L12.4198137,22.3151721 L16.0444624,25.9398208 C16.1933917,26.0888204 16.2677157,26.2967448 16.2469725,26.5063568 C16.2262293,26.7159687 16.1125986,26.9052594 15.9373009,27.0221246 L15.9373009,27.0221246 L12.315957,29.4363538 L15.9140966,34.5936802 L20.7005061,34.5936802 C20.6979044,34.5828515 17.6265019,21.909941 17.5765072,21.7037746 C17.0610207,21.0537032 16.669431,20.3186198 16.4165043,19.5338934 L16.4165043,19.5338934 Z M25.5121591,27.7525671 C24.6967045,28.2717804 23.8419433,28.5465049 23.0008938,28.5465049 C22.1598442,28.5465049 21.305083,28.2717804 20.4896284,27.7525671 L20.4896284,27.7525671 L22.1476795,34.5936802 L23.854108,34.5936802 L25.5121591,27.7525671 Z M29.5852129,19.5338934 C29.3322862,20.3186198 28.9407668,21.0536329 28.42521,21.7037746 L28.42521,21.7037746 L25.3011408,34.5936802 L30.0875503,34.5936802 L33.6856899,29.4363538 L30.064346,27.0221246 C29.8891186,26.9052594 29.7754176,26.7159687 29.7546744,26.5063568 C29.7339312,26.2966745 29.8082552,26.0888204 29.9571845,25.9398208 L29.9571845,25.9398208 L33.5818332,22.3151721 L29.5852129,19.5338934 Z M33.1053017,24.7805211 L31.5580686,26.3277541 L35.0633911,28.6646358 C35.220688,28.7694769 35.3291152,28.9333132 35.3642732,29.119088 C35.3993609,29.3048629 35.3582261,29.4969662 35.2500097,29.6520129 L35.2500097,29.6520129 L31.8023464,34.5936802 L39.5954677,34.5936802 L39.5954677,30.4914452 C39.5954677,28.3696602 38.2430099,26.493278 36.2300037,25.8222525 L36.2300037,25.8222525 L33.1053017,24.7805211 Z M26.5847592,23.3272302 C25.5158155,23.9748404 24.2799416,24.3275455 23.0008938,24.3275455 C21.7218459,24.3275455 20.4860423,23.9748404 19.4170283,23.3272302 L19.4170283,23.3272302 L19.9179594,25.3939578 C20.5114264,26.0778511 21.650897,27.1402554 23.0008938,27.1402554 C24.3508905,27.1402554 25.4903611,26.0778511 26.0838281,25.3939578 L26.0838281,25.3939578 L26.5847592,23.3272302 Z M28.8781856,13.7155967 C27.0396333,13.9643747 25.0274709,14.0951624 23.0009641,14.0951624 C20.9744572,14.0951624 18.9623651,13.9643747 17.1237426,13.7155967 L17.1237426,13.7155967 L17.5161058,17.9625419 C17.6214392,19.0312044 18.0502261,20.103031 18.8111154,20.9914032 C19.8609332,22.2179251 21.3879856,22.9212256 23.0008938,22.9212256 C24.613802,22.9212256 26.1408543,22.2178548 27.1905315,20.9915439 C27.9502957,20.104578 28.3804187,19.0335951 28.4861036,17.9584636 L28.4861036,17.9584636 L28.8781856,13.7155967 Z M30.6052166,6.3401524 C30.4972816,7.2231806 30.3221948,8.0844108 30.0807297,8.9087252 C30.0040149,9.1707226 29.7825898,9.3645838 29.5127874,9.4060702 C27.4835382,9.717992 25.2924919,9.8762029 23.0008938,9.8762029 C20.7092956,9.8762029 18.5183196,9.7180623 16.4890001,9.4060702 C16.2191977,9.3645838 15.9977726,9.1707226 15.9210579,8.9087252 C15.6795927,8.0844108 15.5044356,7.2231806 15.3965709,6.3401524 C11.6146253,7.0921819 9.6408554,8.3073125 9.6408554,9.173043 C9.6408554,10.1282858 11.9809013,11.4730791 16.4533499,12.1950837 C18.4503241,12.5181154 20.7143584,12.6888426 23.0008938,12.6888426 C25.2874292,12.6888426 27.5514634,12.5181154 29.5482266,12.195154 C34.0208862,11.4730791 36.3609321,10.1282858 36.3609321,9.173043 C36.3609321,8.3073125 34.3871622,7.0922522 30.6052166,6.3401524 Z M19.5324169,1.8027318 C18.5535479,1.5135221 17.628963,1.2403445 17.2467252,1.5260383 C17.0322615,1.6863588 16.6724545,2.2476914 16.6724545,4.2066246 C16.6724545,5.484688 16.8230714,6.8096522 17.1517987,8.0821607 C18.9840224,8.3395173 20.9492138,8.4698831 23.0008938,8.4698831 C25.0525737,8.4698831 27.0178354,8.3395173 28.8499889,8.0821607 C29.1742159,6.8272312 29.329333,5.5019154 29.329333,4.2066246 C29.329333,2.2476914 28.969526,1.6862885 28.7550623,1.5260383 C28.3728949,1.2404148 27.4482396,1.5135221 26.4693707,1.8027318 C25.4444448,2.1055124 24.2828246,2.4487248 23.0008938,2.4487248 C21.7189629,2.4487248 20.5573427,2.1055124 19.5324169,1.8027318 Z M20.2966901,5.4636139 L20.3923111,5.4665465 C21.7240257,5.5965608 21.6544128,5.6572435 23.0008938,5.6572435 C23.389249,5.6572435 23.7040537,5.9720482 23.7040537,6.3604034 C23.7040537,6.7487586 23.389249,7.0635633 23.0008938,7.0635633 C21.563213,7.0635633 21.5467591,6.9922629 20.2556168,6.8661863 C19.8690898,6.8284266 19.5863492,6.4845111 19.6241089,6.0979841 C19.6618686,5.7115274 20.0056435,5.4285759 20.3923111,5.4665465 L20.2966901,5.4636139 Z M25.8135334,5.6579466 C26.2029434,5.6579466 26.5159902,5.9715559 26.5159902,6.3604034 C26.5159902,6.6974982 26.2796581,6.9829108 25.9541654,7.0486563 C25.5186281,7.1366216 25.1110767,6.8075428 25.1110767,6.3604034 C25.1110767,5.9709934 25.424686,5.6579466 25.8135334,5.6579466 Z" id="logo-small" fill="#463A3A"></path>
            <path d="M2.82711135,45.5111435 C3.48311135,45.5111435 4.00311135,45.3618101 4.38711135,45.0631435 C4.77111135,44.7644769 4.96311135,44.3324769 4.96311135,43.7671435 C4.96311135,43.4471435 4.89911135,43.1751435 4.77111135,42.9511435 C4.64311135,42.7271435 4.47111135,42.5404769 4.25511135,42.3911435 C4.03911135,42.2418101 3.80044473,42.1218101 3.53911135,42.0311435 C3.32044473,41.9511435 3.11244473,41.8738101 2.91511135,41.7991435 C2.71777798,41.7244769 2.55911135,41.6418101 2.43911135,41.5511435 C2.31911135,41.4604769 2.25911135,41.3511435 2.25911135,41.2231435 C2.25911135,41.0791435 2.31644473,40.9658101 2.43111135,40.8831435 C2.54577798,40.8004769 2.70177798,40.7591435 2.89911135,40.7591435 C3.11777798,40.7591435 3.30577798,40.8178101 3.46311135,40.9351435 C3.62044473,41.0524769 3.75777798,41.2151435 3.87511135,41.4231435 L3.87511135,41.4231435 L4.89111135,40.8391435 C4.81644473,40.6471435 4.69511135,40.4564769 4.52711135,40.2671435 C4.35911135,40.0778101 4.13644473,39.9204769 3.85911135,39.7951435 C3.58177798,39.6698101 3.24311135,39.6071435 2.84311135,39.6071435 C2.45911135,39.6071435 2.11777798,39.6724769 1.81911135,39.8031435 C1.52044473,39.9338101 1.28711135,40.1164769 1.11911135,40.3511435 C0.951111352,40.5858101 0.867111352,40.8604769 0.867111352,41.1751435 C0.867111352,41.4471435 0.919111352,41.6818101 1.02311135,41.8791435 C1.12711135,42.0764769 1.25911135,42.2418101 1.41911135,42.3751435 C1.57911135,42.5084769 1.74577798,42.6191435 1.91911135,42.7071435 C2.09244473,42.7951435 2.24844473,42.8658101 2.38711135,42.9191435 C2.60044473,43.0044769 2.79377798,43.0831435 2.96711135,43.1551435 C3.14044473,43.2271435 3.27911135,43.3111435 3.38311135,43.4071435 C3.48711135,43.5031435 3.53911135,43.6311435 3.53911135,43.7911435 C3.53911135,44.1538101 3.31244473,44.3351435 2.85911135,44.3351435 C2.56577798,44.3351435 2.31377798,44.2511435 2.10311135,44.0831435 C1.89244473,43.9151435 1.69111135,43.6631435 1.49911135,43.3271435 L1.49911135,43.3271435 L0.547111352,43.9911435 C0.664444726,44.3004769 0.837777978,44.5684769 1.06711135,44.7951435 C1.29644473,45.0218101 1.56177798,45.1978101 1.86311135,45.3231435 C2.16444473,45.4484769 2.48577798,45.5111435 2.82711135,45.5111435 Z M7.50859283,45.4151435 C7.99925946,45.4151435 8.38192621,45.3191435 8.65659283,45.1271435 C8.93125946,44.9351435 9.14059283,44.6951435 9.28459283,44.4071435 L9.28459283,44.4071435 L8.27659283,44.0711435 C8.14859283,44.3538101 7.91125946,44.4951435 7.56459283,44.4951435 C7.32459283,44.4951435 7.11392621,44.4324769 6.93259283,44.3071435 C6.75125946,44.1818101 6.63392621,43.9964769 6.58059283,43.7511435 L6.58059283,43.7511435 L9.34059283,43.7511435 C9.35125946,43.6871435 9.35659283,43.6271435 9.35659283,43.5711435 L9.35659283,43.5711435 L9.35659283,43.4391435 C9.35659283,43.0498101 9.27392621,42.7164769 9.10859283,42.4391435 C8.94325946,42.1618101 8.71925946,41.9484769 8.43659283,41.7991435 C8.15392621,41.6498101 7.83659283,41.5751435 7.48459283,41.5751435 C7.13792621,41.5751435 6.82325946,41.6378101 6.54059283,41.7631435 C6.25792621,41.8884769 6.02592621,42.0644769 5.84459283,42.2911435 C5.66325946,42.5178101 5.54592621,42.7831435 5.49259283,43.0871435 C5.48192621,43.1511435 5.47259283,43.2178101 5.46459283,43.2871435 C5.45659283,43.3564769 5.45259283,43.4258101 5.45259283,43.4951435 C5.45259283,43.8631435 5.54192621,44.1924769 5.72059283,44.4831435 C5.89925946,44.7738101 6.14325946,45.0018101 6.45259283,45.1671435 C6.76192621,45.3324769 7.11392621,45.4151435 7.50859283,45.4151435 Z M8.24459283,43.0391435 L6.60459283,43.0391435 C6.65259283,42.8524769 6.75392621,42.7098101 6.90859283,42.6111435 C7.06325946,42.5124769 7.24725946,42.4631435 7.46059283,42.4631435 C7.89259283,42.4631435 8.15392621,42.6551435 8.24459283,43.0391435 L8.24459283,43.0391435 Z M11.9100743,45.4151435 C12.1927409,45.4151435 12.4287409,45.3844769 12.6180743,45.3231435 C12.8074077,45.2618101 12.9660743,45.1804769 13.0940743,45.0791435 L13.0940743,45.0791435 L13.0940743,43.9031435 C12.9820743,44.0791435 12.8274077,44.2151435 12.6300743,44.3111435 C12.4327409,44.4071435 12.2247409,44.4551435 12.0060743,44.4551435 C11.7340743,44.4551435 11.5034077,44.3684769 11.3140743,44.1951435 C11.1247409,44.0218101 11.0300743,43.7884769 11.0300743,43.4951435 C11.0300743,43.2231435 11.1247409,42.9951435 11.3140743,42.8111435 C11.5034077,42.6271435 11.7340743,42.5351435 12.0060743,42.5351435 C12.2034077,42.5351435 12.4060743,42.5818101 12.6140743,42.6751435 C12.8220743,42.7684769 12.9820743,42.9031435 13.0940743,43.0791435 L13.0940743,43.0791435 L13.0940743,41.8951435 C12.9660743,41.8044769 12.8074077,41.7284769 12.6180743,41.6671435 C12.4287409,41.6058101 12.1927409,41.5751435 11.9100743,41.5751435 C11.4994077,41.5751435 11.1340743,41.6538101 10.8140743,41.8111435 C10.4940743,41.9684769 10.2420743,42.1911435 10.0580743,42.4791435 C9.87407431,42.7671435 9.78207431,43.1058101 9.78207431,43.4951435 C9.78207431,43.8844769 9.87407431,44.2231435 10.0580743,44.5111435 C10.2420743,44.7991435 10.4940743,45.0218101 10.8140743,45.1791435 C11.1340743,45.3364769 11.4994077,45.4151435 11.9100743,45.4151435 Z M15.0315558,45.3351435 L15.0315558,43.5191435 C15.0315558,43.2524769 15.0862224,43.0484769 15.1955558,42.9071435 C15.3048892,42.7658101 15.4475558,42.6951435 15.6235558,42.6951435 C15.7302224,42.6951435 15.8195558,42.7151435 15.8915558,42.7551435 C15.9635558,42.7951435 16.0315558,42.8471435 16.0955558,42.9111435 L16.0955558,42.9111435 L16.6235558,41.8711435 C16.5595558,41.7804769 16.4662224,41.7071435 16.3435558,41.6511435 C16.2208892,41.5951435 16.0928892,41.5671435 15.9595558,41.5671435 C15.7835558,41.5671435 15.6142224,41.6164769 15.4515558,41.7151435 C15.2888892,41.8138101 15.1488892,41.9484769 15.0315558,42.1191435 L15.0315558,42.1191435 L15.0315558,41.6551435 L13.8475558,41.6551435 L13.8475558,45.3351435 L15.0315558,45.3351435 Z M18.7690373,45.4151435 C19.2597039,45.4151435 19.6423707,45.3191435 19.9170373,45.1271435 C20.1917039,44.9351435 20.4010373,44.6951435 20.5450373,44.4071435 L20.5450373,44.4071435 L19.5370373,44.0711435 C19.4090373,44.3538101 19.1717039,44.4951435 18.8250373,44.4951435 C18.5850373,44.4951435 18.3743707,44.4324769 18.1930373,44.3071435 C18.0117039,44.1818101 17.8943707,43.9964769 17.8410373,43.7511435 L17.8410373,43.7511435 L20.6010373,43.7511435 C20.6117039,43.6871435 20.6170373,43.6271435 20.6170373,43.5711435 L20.6170373,43.5711435 L20.6170373,43.4391435 C20.6170373,43.0498101 20.5343707,42.7164769 20.3690373,42.4391435 C20.2037039,42.1618101 19.9797039,41.9484769 19.6970373,41.7991435 C19.4143707,41.6498101 19.0970373,41.5751435 18.7450373,41.5751435 C18.3983707,41.5751435 18.0837039,41.6378101 17.8010373,41.7631435 C17.5183707,41.8884769 17.2863707,42.0644769 17.1050373,42.2911435 C16.9237039,42.5178101 16.8063707,42.7831435 16.7530373,43.0871435 C16.7423707,43.1511435 16.7330373,43.2178101 16.7250373,43.2871435 C16.7170373,43.3564769 16.7130373,43.4258101 16.7130373,43.4951435 C16.7130373,43.8631435 16.8023707,44.1924769 16.9810373,44.4831435 C17.1597039,44.7738101 17.4037039,45.0018101 17.7130373,45.1671435 C18.0223707,45.3324769 18.3743707,45.4151435 18.7690373,45.4151435 Z M19.5050373,43.0391435 L17.8650373,43.0391435 C17.9130373,42.8524769 18.0143707,42.7098101 18.1690373,42.6111435 C18.3237039,42.5124769 18.5077039,42.4631435 18.7210373,42.4631435 C19.1530373,42.4631435 19.4143707,42.6551435 19.5050373,43.0391435 L19.5050373,43.0391435 Z M22.6585188,45.3351435 L22.6585188,42.6551435 L23.3065188,42.6551435 L23.3065188,41.6551435 L22.6585188,41.6551435 L22.6585188,40.3751435 L21.4905188,40.3751435 L21.4905188,41.6551435 L20.8425188,41.6551435 L20.8425188,42.6551435 L21.4905188,42.6551435 L21.4905188,45.3351435 L22.6585188,45.3351435 Z M25.4294812,45.3351435 L25.9574812,44.2551435 L27.7334812,44.2551435 L28.2614812,45.3351435 L29.7974812,45.3351435 L26.8534812,39.3831435 L23.8934812,45.3351435 L25.4294812,45.3351435 Z M27.4694812,43.2231435 L26.2294812,43.2231435 L26.8534812,41.7991435 L27.4694812,43.2231435 Z M32.0709627,47.2551435 C32.4442961,47.2551435 32.7842961,47.1871435 33.0909627,47.0511435 C33.3976293,46.9151435 33.6416293,46.7004769 33.8229627,46.4071435 C34.0042961,46.1138101 34.0949627,45.7298101 34.0949627,45.2551435 L34.0949627,45.2551435 L34.0949627,41.6551435 L32.9349627,41.6551435 L32.9349627,42.2151435 C32.6416293,41.7884769 32.2202961,41.5751435 31.6709627,41.5751435 C31.3722961,41.5751435 31.0896293,41.6444769 30.8229627,41.7831435 C30.5562961,41.9218101 30.3402961,42.1298101 30.1749627,42.4071435 C30.0096293,42.6844769 29.9269627,43.0311435 29.9269627,43.4471435 C29.9269627,43.8631435 30.0096293,44.2098101 30.1749627,44.4871435 C30.3402961,44.7644769 30.5562961,44.9724769 30.8229627,45.1111435 C31.0896293,45.2498101 31.3722961,45.3191435 31.6709627,45.3191435 C32.2202961,45.3191435 32.6416293,45.1058101 32.9349627,44.6791435 L32.9349627,44.6791435 L32.9349627,45.2551435 C32.9349627,45.5964769 32.8456293,45.8524769 32.6669627,46.0231435 C32.4882961,46.1938101 32.2709627,46.2791435 32.0149627,46.2791435 C31.7802961,46.2791435 31.5869627,46.2218101 31.4349627,46.1071435 C31.2829627,45.9924769 31.1962961,45.8231435 31.1749627,45.5991435 L31.1749627,45.5991435 L30.0069627,45.5991435 C30.0389627,45.9244769 30.1296293,46.2111435 30.2789627,46.4591435 C30.4282961,46.7071435 30.6496293,46.9018101 30.9429627,47.0431435 C31.2362961,47.1844769 31.6122961,47.2551435 32.0709627,47.2551435 Z M32.0789627,44.3431435 C31.8389627,44.3431435 31.6322961,44.2658101 31.4589627,44.1111435 C31.2856293,43.9564769 31.1989627,43.7351435 31.1989627,43.4471435 C31.1989627,43.1591435 31.2856293,42.9378101 31.4589627,42.7831435 C31.6322961,42.6284769 31.8389627,42.5511435 32.0789627,42.5511435 C32.2176293,42.5511435 32.3522961,42.5844769 32.4829627,42.6511435 C32.6136293,42.7178101 32.7216293,42.8164769 32.8069627,42.9471435 C32.8922961,43.0778101 32.9349627,43.2444769 32.9349627,43.4471435 C32.9349627,43.6444769 32.8922961,43.8098101 32.8069627,43.9431435 C32.7216293,44.0764769 32.6136293,44.1764769 32.4829627,44.2431435 C32.3522961,44.3098101 32.2176293,44.3431435 32.0789627,44.3431435 Z M36.7844442,45.4151435 C37.2751108,45.4151435 37.6577776,45.3191435 37.9324442,45.1271435 C38.2071108,44.9351435 38.4164442,44.6951435 38.5604442,44.4071435 L38.5604442,44.4071435 L37.5524442,44.0711435 C37.4244442,44.3538101 37.1871108,44.4951435 36.8404442,44.4951435 C36.6004442,44.4951435 36.3897776,44.4324769 36.2084442,44.3071435 C36.0271108,44.1818101 35.9097776,43.9964769 35.8564442,43.7511435 L35.8564442,43.7511435 L38.6164442,43.7511435 C38.6271108,43.6871435 38.6324442,43.6271435 38.6324442,43.5711435 L38.6324442,43.5711435 L38.6324442,43.4391435 C38.6324442,43.0498101 38.5497776,42.7164769 38.3844442,42.4391435 C38.2191108,42.1618101 37.9951108,41.9484769 37.7124442,41.7991435 C37.4297776,41.6498101 37.1124442,41.5751435 36.7604442,41.5751435 C36.4137776,41.5751435 36.0991108,41.6378101 35.8164442,41.7631435 C35.5337776,41.8884769 35.3017776,42.0644769 35.1204442,42.2911435 C34.9391108,42.5178101 34.8217776,42.7831435 34.7684442,43.0871435 C34.7577776,43.1511435 34.7484442,43.2178101 34.7404442,43.2871435 C34.7324442,43.3564769 34.7284442,43.4258101 34.7284442,43.4951435 C34.7284442,43.8631435 34.8177776,44.1924769 34.9964442,44.4831435 C35.1751108,44.7738101 35.4191108,45.0018101 35.7284442,45.1671435 C36.0377776,45.3324769 36.3897776,45.4151435 36.7844442,45.4151435 Z M37.5204442,43.0391435 L35.8804442,43.0391435 C35.9284442,42.8524769 36.0297776,42.7098101 36.1844442,42.6111435 C36.3391108,42.5124769 36.5231108,42.4631435 36.7364442,42.4631435 C37.1684442,42.4631435 37.4297776,42.6551435 37.5204442,43.0391435 L37.5204442,43.0391435 Z M40.5139257,45.3351435 L40.5139257,43.0951435 C40.5139257,42.8764769 40.5712591,42.7098101 40.6859257,42.5951435 C40.8005923,42.4804769 40.9539257,42.4231435 41.1459257,42.4231435 C41.3485923,42.4231435 41.4885923,42.4804769 41.5659257,42.5951435 C41.6432591,42.7098101 41.6819257,42.8764769 41.6819257,43.0951435 L41.6819257,43.0951435 L41.6819257,45.3351435 L42.9459257,45.3351435 L42.9459257,42.9671435 C42.9459257,42.5191435 42.8419257,42.1751435 42.6339257,41.9351435 C42.4259257,41.6951435 42.0925923,41.5751435 41.6339257,41.5751435 C41.3619257,41.5751435 41.1339257,41.6324769 40.9499257,41.7471435 C40.7659257,41.8618101 40.6205923,42.0151435 40.5139257,42.2071435 L40.5139257,42.2071435 L40.5139257,41.6551435 L39.2979257,41.6551435 L39.2979257,45.3351435 L40.5139257,45.3351435 Z M45.1554072,45.3351435 L45.1554072,42.6551435 L45.8034072,42.6551435 L45.8034072,41.6551435 L45.1554072,41.6551435 L45.1554072,40.3751435 L43.9874072,40.3751435 L43.9874072,41.6551435 L43.3394072,41.6551435 L43.3394072,42.6551435 L43.9874072,42.6551435 L43.9874072,45.3351435 L45.1554072,45.3351435 Z" id="SecretAgent" fill="#505050"></path>
        </g>
    </g>
</svg>