<?xml version="1.0" encoding="UTF-8"?>
<svg width="47px" height="49px" viewBox="0 0 47 49" version="1.1" xmlns="http://www.w3.org/2000/svg" xmlns:xlink="http://www.w3.org/1999/xlink">
    <title>logo-dark</title>
    <g id="Page-1" stroke="none" stroke-width="1" fill="none" fill-rule="evenodd">
        <g id="logo-dark" fill="#FFFFFF" fill-rule="nonzero">
            <path d="M26.9148146,0.4540711 C28.2412555,0.0622 29.4941458,-0.3079433 30.44081,0.3995058 C31.2283491,0.9880507 31.5795775,2.1621871 31.5795775,4.2066246 C31.5795775,4.4487225 31.5742335,4.6903986 31.5643892,4.9300355 C34.0682714,5.4129657 38.6111766,6.6314012 38.6111766,9.173043 C38.6111766,11.795267 33.7629593,13.0217185 31.1549392,13.491359 L31.1549392,13.491359 L30.7352934,18.0336314 L35.9188476,21.6409121 C36.0897858,21.7598164 36.1991272,21.9483336 36.2176203,22.1557657 C36.2360431,22.3631276 36.1616487,22.5680284 36.0144071,22.7152701 L36.0144071,22.7152701 L35.0609925,23.6686846 L37.5186067,24.4880769 C40.1067978,25.3507838 41.8457122,27.7633957 41.8457122,30.4914452 L41.8457122,30.4914452 L41.8457122,35.2968401 C41.8457122,35.6851953 41.5309075,36 41.1425523,36 L41.1425523,36 L6.54708461,36 C6.15872941,36 5.84392471,35.6851953 5.84392471,35.2968401 L5.84392471,35.2968401 L5.84392471,30.4914452 C5.84392471,27.7633957 7.58283921,25.3508541 10.1711005,24.4880769 L10.1711005,24.4880769 L12.6286444,23.6686846 L11.6751595,22.7152701 C11.5279179,22.5680284 11.4535235,22.3631276 11.4719463,22.1557657 C11.4904394,21.9484039 11.5997808,21.7598164 11.770719,21.6409121 L11.770719,21.6409121 L16.9542732,18.0336314 L16.5346274,13.491359 C13.9268885,13.0217888 9.07846031,11.7953373 9.07846031,9.173043 C9.07846031,6.6333701 13.6141933,5.414372 16.1251774,4.9300355 C16.1153331,4.6906095 16.1100594,4.4488632 16.1100594,4.2066246 C16.1100594,2.1621871 16.4612878,0.9880507 17.2486863,0.3995058 C18.1953505,-0.307873 19.4482408,0.0621297 20.7746816,0.4540711 C21.7081967,0.7298504 22.7661712,1.042405 23.8447481,1.042405 C24.9233251,1.042405 25.9813699,0.7298504 26.9148146,0.4540711 Z M13.7403402,24.7805211 L10.6157788,25.8222525 C8.60270231,26.4932077 7.25024451,28.3696602 7.25024451,30.4914452 L7.25024451,30.4914452 L7.25024451,34.5936802 L15.0432955,34.5936802 L11.5956322,29.6520129 C11.4874158,29.4969662 11.446281,29.3048629 11.4813687,29.119088 C11.5164563,28.9333132 11.6249539,28.7694769 11.7822508,28.6646358 L11.7822508,28.6646358 L15.2875733,26.3277541 L13.7403402,24.7805211 Z M17.260429,19.5338934 L13.2637384,22.3151721 L16.8883871,25.9398208 C17.0373164,26.0888204 17.1116404,26.2967448 17.0908972,26.5063568 C17.070154,26.7159687 16.9565233,26.9052594 16.7812256,27.0221246 L16.7812256,27.0221246 L13.1598817,29.4363538 L16.7580213,34.5936802 L21.5444308,34.5936802 C21.5418291,34.5828515 18.4704266,21.909941 18.4204319,21.7037746 C17.9049454,21.0537032 17.5133557,20.3186198 17.260429,19.5338934 L17.260429,19.5338934 Z M26.3560838,27.7525671 C25.5406292,28.2717804 24.685868,28.5465049 23.8448185,28.5465049 C23.0037689,28.5465049 22.1490077,28.2717804 21.3335531,27.7525671 L21.3335531,27.7525671 L22.9916042,34.5936802 L24.6980327,34.5936802 L26.3560838,27.7525671 Z M30.4291376,19.5338934 C30.1762109,20.3186198 29.7846915,21.0536329 29.2691347,21.7037746 L29.2691347,21.7037746 L26.1450655,34.5936802 L30.931475,34.5936802 L34.5296146,29.4363538 L30.9082707,27.0221246 C30.7330433,26.9052594 30.6193423,26.7159687 30.5985991,26.5063568 C30.5778559,26.2966745 30.6521799,26.0888204 30.8011092,25.9398208 L30.8011092,25.9398208 L34.4257579,22.3151721 L30.4291376,19.5338934 Z M33.9492264,24.7805211 L32.4019933,26.3277541 L35.9073158,28.6646358 C36.0646127,28.7694769 36.1730399,28.9333132 36.2081979,29.119088 C36.2432856,29.3048629 36.2021508,29.4969662 36.0939344,29.6520129 L36.0939344,29.6520129 L32.6462711,34.5936802 L40.4393924,34.5936802 L40.4393924,30.4914452 C40.4393924,28.3696602 39.0869346,26.493278 37.0739284,25.8222525 L37.0739284,25.8222525 L33.9492264,24.7805211 Z M27.4286839,23.3272302 C26.3597402,23.9748404 25.1238663,24.3275455 23.8448185,24.3275455 C22.5657706,24.3275455 21.329967,23.9748404 20.260953,23.3272302 L20.260953,23.3272302 L20.7618841,25.3939578 C21.3553511,26.0778511 22.4948217,27.1402554 23.8448185,27.1402554 C25.1948152,27.1402554 26.3342858,26.0778511 26.9277528,25.3939578 L26.9277528,25.3939578 L27.4286839,23.3272302 Z M29.7221103,13.7155967 C27.883558,13.9643747 25.8713956,14.0951624 23.8448888,14.0951624 C21.8183819,14.0951624 19.8062898,13.9643747 17.9676673,13.7155967 L17.9676673,13.7155967 L18.3600305,17.9625419 C18.4653639,19.0312044 18.8941508,20.103031 19.6550401,20.9914032 C20.7048579,22.2179251 22.2319103,22.9212256 23.8448185,22.9212256 C25.4577267,22.9212256 26.984779,22.2178548 28.0344562,20.9915439 C28.7942204,20.104578 29.2243434,19.0335951 29.3300283,17.9584636 L29.3300283,17.9584636 L29.7221103,13.7155967 Z M31.4491413,6.3401524 C31.3412063,7.2231806 31.1661195,8.0844108 30.9246544,8.9087252 C30.8479396,9.1707226 30.6265145,9.3645838 30.3567121,9.4060702 C28.3274629,9.717992 26.1364166,9.8762029 23.8448185,9.8762029 C21.5532203,9.8762029 19.3622443,9.7180623 17.3329248,9.4060702 C17.0631224,9.3645838 16.8416973,9.1707226 16.7649826,8.9087252 C16.5235174,8.0844108 16.3483603,7.2231806 16.2404956,6.3401524 C12.45855,7.0921819 10.4847801,8.3073125 10.4847801,9.173043 C10.4847801,10.1282858 12.824826,11.4730791 17.2972746,12.1950837 C19.2942488,12.5181154 21.5582831,12.6888426 23.8448185,12.6888426 C26.1313539,12.6888426 28.3953881,12.5181154 30.3921513,12.195154 C34.8648109,11.4730791 37.2048568,10.1282858 37.2048568,9.173043 C37.2048568,8.3073125 35.2310869,7.0922522 31.4491413,6.3401524 Z M20.3763416,1.8027318 C19.3974726,1.5135221 18.4728877,1.2403445 18.0906499,1.5260383 C17.8761862,1.6863588 17.5163792,2.2476914 17.5163792,4.2066246 C17.5163792,5.484688 17.6669961,6.8096522 17.9957234,8.0821607 C19.8279471,8.3395173 21.7931385,8.4698831 23.8448185,8.4698831 C25.8964984,8.4698831 27.8617601,8.3395173 29.6939136,8.0821607 C30.0181406,6.8272312 30.1732577,5.5019154 30.1732577,4.2066246 C30.1732577,2.2476914 29.8134507,1.6862885 29.598987,1.5260383 C29.2168196,1.2404148 28.2921643,1.5135221 27.3132954,1.8027318 C26.2883695,2.1055124 25.1267493,2.4487248 23.8448185,2.4487248 C22.5628876,2.4487248 21.4012674,2.1055124 20.3763416,1.8027318 Z M21.1406148,5.4636139 L21.2362358,5.4665465 C22.5679504,5.5965608 22.4983375,5.6572435 23.8448185,5.6572435 C24.2331737,5.6572435 24.5479784,5.9720482 24.5479784,6.3604034 C24.5479784,6.7487586 24.2331737,7.0635633 23.8448185,7.0635633 C22.4071377,7.0635633 22.3906838,6.9922629 21.0995415,6.8661863 C20.7130145,6.8284266 20.4302739,6.4845111 20.4680336,6.0979841 C20.5057933,5.7115274 20.8495682,5.4285759 21.2362358,5.4665465 L21.1406148,5.4636139 Z M26.6574581,5.6579466 C27.0468681,5.6579466 27.3599149,5.9715559 27.3599149,6.3604034 C27.3599149,6.6974982 27.1235828,6.9829108 26.7980901,7.0486563 C26.3625528,7.1366216 25.9550014,6.8075428 25.9550014,6.3604034 C25.9550014,5.9709934 26.2686107,5.6579466 26.6574581,5.6579466 Z" id="logo-small"></path>
            <path d="M3.67192981,45.5111435 C4.32792981,45.5111435 4.84792981,45.3618101 5.23192981,45.0631435 C5.61592981,44.7644769 5.80792981,44.3324769 5.80792981,43.7671435 C5.80792981,43.4471435 5.74392981,43.1751435 5.61592981,42.9511435 C5.48792981,42.7271435 5.31592981,42.5404769 5.09992981,42.3911435 C4.88392981,42.2418101 4.64526319,42.1218101 4.38392981,42.0311435 C4.16526319,41.9511435 3.95726319,41.8738101 3.75992981,41.7991435 C3.56259644,41.7244769 3.40392981,41.6418101 3.28392981,41.5511435 C3.16392981,41.4604769 3.10392981,41.3511435 3.10392981,41.2231435 C3.10392981,41.0791435 3.16126319,40.9658101 3.27592981,40.8831435 C3.39059644,40.8004769 3.54659644,40.7591435 3.74392981,40.7591435 C3.96259644,40.7591435 4.15059644,40.8178101 4.30792981,40.9351435 C4.46526319,41.0524769 4.60259644,41.2151435 4.71992981,41.4231435 L4.71992981,41.4231435 L5.73592981,40.8391435 C5.66126319,40.6471435 5.53992981,40.4564769 5.37192981,40.2671435 C5.20392981,40.0778101 4.98126319,39.9204769 4.70392981,39.7951435 C4.42659644,39.6698101 4.08792981,39.6071435 3.68792981,39.6071435 C3.30392981,39.6071435 2.96259644,39.6724769 2.66392981,39.8031435 C2.36526319,39.9338101 2.13192981,40.1164769 1.96392981,40.3511435 C1.79592981,40.5858101 1.71192981,40.8604769 1.71192981,41.1751435 C1.71192981,41.4471435 1.76392981,41.6818101 1.86792981,41.8791435 C1.97192981,42.0764769 2.10392981,42.2418101 2.26392981,42.3751435 C2.42392981,42.5084769 2.59059644,42.6191435 2.76392981,42.7071435 C2.93726319,42.7951435 3.09326319,42.8658101 3.23192981,42.9191435 C3.44526319,43.0044769 3.63859644,43.0831435 3.81192981,43.1551435 C3.98526319,43.2271435 4.12392981,43.3111435 4.22792981,43.4071435 C4.33192981,43.5031435 4.38392981,43.6311435 4.38392981,43.7911435 C4.38392981,44.1538101 4.15726319,44.3351435 3.70392981,44.3351435 C3.41059644,44.3351435 3.15859644,44.2511435 2.94792981,44.0831435 C2.73726319,43.9151435 2.53592981,43.6631435 2.34392981,43.3271435 L2.34392981,43.3271435 L1.39192981,43.9911435 C1.50926319,44.3004769 1.68259644,44.5684769 1.91192981,44.7951435 C2.14126319,45.0218101 2.40659644,45.1978101 2.70792981,45.3231435 C3.00926319,45.4484769 3.33059644,45.5111435 3.67192981,45.5111435 Z M8.35341129,45.4151435 C8.84407792,45.4151435 9.22674467,45.3191435 9.50141129,45.1271435 C9.77607792,44.9351435 9.98541129,44.6951435 10.1294113,44.4071435 L10.1294113,44.4071435 L9.12141129,44.0711435 C8.99341129,44.3538101 8.75607792,44.4951435 8.40941129,44.4951435 C8.16941129,44.4951435 7.95874467,44.4324769 7.77741129,44.3071435 C7.59607792,44.1818101 7.47874467,43.9964769 7.42541129,43.7511435 L7.42541129,43.7511435 L10.1854113,43.7511435 C10.1960779,43.6871435 10.2014113,43.6271435 10.2014113,43.5711435 L10.2014113,43.5711435 L10.2014113,43.4391435 C10.2014113,43.0498101 10.1187447,42.7164769 9.95341129,42.4391435 C9.78807792,42.1618101 9.56407792,41.9484769 9.28141129,41.7991435 C8.99874467,41.6498101 8.68141129,41.5751435 8.32941129,41.5751435 C7.98274467,41.5751435 7.66807792,41.6378101 7.38541129,41.7631435 C7.10274467,41.8884769 6.87074467,42.0644769 6.68941129,42.2911435 C6.50807792,42.5178101 6.39074467,42.7831435 6.33741129,43.0871435 C6.32674467,43.1511435 6.31741129,43.2178101 6.30941129,43.2871435 C6.30141129,43.3564769 6.29741129,43.4258101 6.29741129,43.4951435 C6.29741129,43.8631435 6.38674467,44.1924769 6.56541129,44.4831435 C6.74407792,44.7738101 6.98807792,45.0018101 7.29741129,45.1671435 C7.60674467,45.3324769 7.95874467,45.4151435 8.35341129,45.4151435 Z M9.08941129,43.0391435 L7.44941129,43.0391435 C7.49741129,42.8524769 7.59874467,42.7098101 7.75341129,42.6111435 C7.90807792,42.5124769 8.09207792,42.4631435 8.30541129,42.4631435 C8.73741129,42.4631435 8.99874467,42.6551435 9.08941129,43.0391435 L9.08941129,43.0391435 Z M12.7548928,45.4151435 C13.0375594,45.4151435 13.2735594,45.3844769 13.4628928,45.3231435 C13.6522261,45.2618101 13.8108928,45.1804769 13.9388928,45.0791435 L13.9388928,45.0791435 L13.9388928,43.9031435 C13.8268928,44.0791435 13.6722261,44.2151435 13.4748928,44.3111435 C13.2775594,44.4071435 13.0695594,44.4551435 12.8508928,44.4551435 C12.5788928,44.4551435 12.3482261,44.3684769 12.1588928,44.1951435 C11.9695594,44.0218101 11.8748928,43.7884769 11.8748928,43.4951435 C11.8748928,43.2231435 11.9695594,42.9951435 12.1588928,42.8111435 C12.3482261,42.6271435 12.5788928,42.5351435 12.8508928,42.5351435 C13.0482261,42.5351435 13.2508928,42.5818101 13.4588928,42.6751435 C13.6668928,42.7684769 13.8268928,42.9031435 13.9388928,43.0791435 L13.9388928,43.0791435 L13.9388928,41.8951435 C13.8108928,41.8044769 13.6522261,41.7284769 13.4628928,41.6671435 C13.2735594,41.6058101 13.0375594,41.5751435 12.7548928,41.5751435 C12.3442261,41.5751435 11.9788928,41.6538101 11.6588928,41.8111435 C11.3388928,41.9684769 11.0868928,42.1911435 10.9028928,42.4791435 C10.7188928,42.7671435 10.6268928,43.1058101 10.6268928,43.4951435 C10.6268928,43.8844769 10.7188928,44.2231435 10.9028928,44.5111435 C11.0868928,44.7991435 11.3388928,45.0218101 11.6588928,45.1791435 C11.9788928,45.3364769 12.3442261,45.4151435 12.7548928,45.4151435 Z M15.8763743,45.3351435 L15.8763743,43.5191435 C15.8763743,43.2524769 15.9310409,43.0484769 16.0403743,42.9071435 C16.1497076,42.7658101 16.2923743,42.6951435 16.4683743,42.6951435 C16.5750409,42.6951435 16.6643743,42.7151435 16.7363743,42.7551435 C16.8083743,42.7951435 16.8763743,42.8471435 16.9403743,42.9111435 L16.9403743,42.9111435 L17.4683743,41.8711435 C17.4043743,41.7804769 17.3110409,41.7071435 17.1883743,41.6511435 C17.0657076,41.5951435 16.9377076,41.5671435 16.8043743,41.5671435 C16.6283743,41.5671435 16.4590409,41.6164769 16.2963743,41.7151435 C16.1337076,41.8138101 15.9937076,41.9484769 15.8763743,42.1191435 L15.8763743,42.1191435 L15.8763743,41.6551435 L14.6923743,41.6551435 L14.6923743,45.3351435 L15.8763743,45.3351435 Z M19.6138557,45.4151435 C20.1045224,45.4151435 20.4871891,45.3191435 20.7618557,45.1271435 C21.0365224,44.9351435 21.2458557,44.6951435 21.3898557,44.4071435 L21.3898557,44.4071435 L20.3818557,44.0711435 C20.2538557,44.3538101 20.0165224,44.4951435 19.6698557,44.4951435 C19.4298557,44.4951435 19.2191891,44.4324769 19.0378557,44.3071435 C18.8565224,44.1818101 18.7391891,43.9964769 18.6858557,43.7511435 L18.6858557,43.7511435 L21.4458557,43.7511435 C21.4565224,43.6871435 21.4618557,43.6271435 21.4618557,43.5711435 L21.4618557,43.5711435 L21.4618557,43.4391435 C21.4618557,43.0498101 21.3791891,42.7164769 21.2138557,42.4391435 C21.0485224,42.1618101 20.8245224,41.9484769 20.5418557,41.7991435 C20.2591891,41.6498101 19.9418557,41.5751435 19.5898557,41.5751435 C19.2431891,41.5751435 18.9285224,41.6378101 18.6458557,41.7631435 C18.3631891,41.8884769 18.1311891,42.0644769 17.9498557,42.2911435 C17.7685224,42.5178101 17.6511891,42.7831435 17.5978557,43.0871435 C17.5871891,43.1511435 17.5778557,43.2178101 17.5698557,43.2871435 C17.5618557,43.3564769 17.5578557,43.4258101 17.5578557,43.4951435 C17.5578557,43.8631435 17.6471891,44.1924769 17.8258557,44.4831435 C18.0045224,44.7738101 18.2485224,45.0018101 18.5578557,45.1671435 C18.8671891,45.3324769 19.2191891,45.4151435 19.6138557,45.4151435 Z M20.3498557,43.0391435 L18.7098557,43.0391435 C18.7578557,42.8524769 18.8591891,42.7098101 19.0138557,42.6111435 C19.1685224,42.5124769 19.3525224,42.4631435 19.5658557,42.4631435 C19.9978557,42.4631435 20.2591891,42.6551435 20.3498557,43.0391435 L20.3498557,43.0391435 Z M23.5033372,45.3351435 L23.5033372,42.6551435 L24.1513372,42.6551435 L24.1513372,41.6551435 L23.5033372,41.6551435 L23.5033372,40.3751435 L22.3353372,40.3751435 L22.3353372,41.6551435 L21.6873372,41.6551435 L21.6873372,42.6551435 L22.3353372,42.6551435 L22.3353372,45.3351435 L23.5033372,45.3351435 Z M26.2742997,45.3351435 L26.8022997,44.2551435 L28.5782997,44.2551435 L29.1062997,45.3351435 L30.6422997,45.3351435 L27.6982997,39.3831435 L24.7382997,45.3351435 L26.2742997,45.3351435 Z M28.3142997,43.2231435 L27.0742997,43.2231435 L27.6982997,41.7991435 L28.3142997,43.2231435 Z M32.9157812,47.2551435 C33.2891146,47.2551435 33.6291146,47.1871435 33.9357812,47.0511435 C34.2424478,46.9151435 34.4864478,46.7004769 34.6677812,46.4071435 C34.8491146,46.1138101 34.9397812,45.7298101 34.9397812,45.2551435 L34.9397812,45.2551435 L34.9397812,41.6551435 L33.7797812,41.6551435 L33.7797812,42.2151435 C33.4864478,41.7884769 33.0651146,41.5751435 32.5157812,41.5751435 C32.2171146,41.5751435 31.9344478,41.6444769 31.6677812,41.7831435 C31.4011146,41.9218101 31.1851146,42.1298101 31.0197812,42.4071435 C30.8544478,42.6844769 30.7717812,43.0311435 30.7717812,43.4471435 C30.7717812,43.8631435 30.8544478,44.2098101 31.0197812,44.4871435 C31.1851146,44.7644769 31.4011146,44.9724769 31.6677812,45.1111435 C31.9344478,45.2498101 32.2171146,45.3191435 32.5157812,45.3191435 C33.0651146,45.3191435 33.4864478,45.1058101 33.7797812,44.6791435 L33.7797812,44.6791435 L33.7797812,45.2551435 C33.7797812,45.5964769 33.6904478,45.8524769 33.5117812,46.0231435 C33.3331146,46.1938101 33.1157812,46.2791435 32.8597812,46.2791435 C32.6251146,46.2791435 32.4317812,46.2218101 32.2797812,46.1071435 C32.1277812,45.9924769 32.0411146,45.8231435 32.0197812,45.5991435 L32.0197812,45.5991435 L30.8517812,45.5991435 C30.8837812,45.9244769 30.9744478,46.2111435 31.1237812,46.4591435 C31.2731146,46.7071435 31.4944478,46.9018101 31.7877812,47.0431435 C32.0811146,47.1844769 32.4571146,47.2551435 32.9157812,47.2551435 Z M32.9237812,44.3431435 C32.6837812,44.3431435 32.4771146,44.2658101 32.3037812,44.1111435 C32.1304478,43.9564769 32.0437812,43.7351435 32.0437812,43.4471435 C32.0437812,43.1591435 32.1304478,42.9378101 32.3037812,42.7831435 C32.4771146,42.6284769 32.6837812,42.5511435 32.9237812,42.5511435 C33.0624478,42.5511435 33.1971146,42.5844769 33.3277812,42.6511435 C33.4584478,42.7178101 33.5664478,42.8164769 33.6517812,42.9471435 C33.7371146,43.0778101 33.7797812,43.2444769 33.7797812,43.4471435 C33.7797812,43.6444769 33.7371146,43.8098101 33.6517812,43.9431435 C33.5664478,44.0764769 33.4584478,44.1764769 33.3277812,44.2431435 C33.1971146,44.3098101 33.0624478,44.3431435 32.9237812,44.3431435 Z M37.6292627,45.4151435 C38.1199293,45.4151435 38.502596,45.3191435 38.7772627,45.1271435 C39.0519293,44.9351435 39.2612627,44.6951435 39.4052627,44.4071435 L39.4052627,44.4071435 L38.3972627,44.0711435 C38.2692627,44.3538101 38.0319293,44.4951435 37.6852627,44.4951435 C37.4452627,44.4951435 37.234596,44.4324769 37.0532627,44.3071435 C36.8719293,44.1818101 36.754596,43.9964769 36.7012627,43.7511435 L36.7012627,43.7511435 L39.4612627,43.7511435 C39.4719293,43.6871435 39.4772627,43.6271435 39.4772627,43.5711435 L39.4772627,43.5711435 L39.4772627,43.4391435 C39.4772627,43.0498101 39.394596,42.7164769 39.2292627,42.4391435 C39.0639293,42.1618101 38.8399293,41.9484769 38.5572627,41.7991435 C38.274596,41.6498101 37.9572627,41.5751435 37.6052627,41.5751435 C37.258596,41.5751435 36.9439293,41.6378101 36.6612627,41.7631435 C36.378596,41.8884769 36.146596,42.0644769 35.9652627,42.2911435 C35.7839293,42.5178101 35.666596,42.7831435 35.6132627,43.0871435 C35.602596,43.1511435 35.5932627,43.2178101 35.5852627,43.2871435 C35.5772627,43.3564769 35.5732627,43.4258101 35.5732627,43.4951435 C35.5732627,43.8631435 35.662596,44.1924769 35.8412627,44.4831435 C36.0199293,44.7738101 36.2639293,45.0018101 36.5732627,45.1671435 C36.882596,45.3324769 37.234596,45.4151435 37.6292627,45.4151435 Z M38.3652627,43.0391435 L36.7252627,43.0391435 C36.7732627,42.8524769 36.874596,42.7098101 37.0292627,42.6111435 C37.1839293,42.5124769 37.3679293,42.4631435 37.5812627,42.4631435 C38.0132627,42.4631435 38.274596,42.6551435 38.3652627,43.0391435 L38.3652627,43.0391435 Z M41.3587441,45.3351435 L41.3587441,43.0951435 C41.3587441,42.8764769 41.4160775,42.7098101 41.5307441,42.5951435 C41.6454108,42.4804769 41.7987441,42.4231435 41.9907441,42.4231435 C42.1934108,42.4231435 42.3334108,42.4804769 42.4107441,42.5951435 C42.4880775,42.7098101 42.5267441,42.8764769 42.5267441,43.0951435 L42.5267441,43.0951435 L42.5267441,45.3351435 L43.7907441,45.3351435 L43.7907441,42.9671435 C43.7907441,42.5191435 43.6867441,42.1751435 43.4787441,41.9351435 C43.2707441,41.6951435 42.9374108,41.5751435 42.4787441,41.5751435 C42.2067441,41.5751435 41.9787441,41.6324769 41.7947441,41.7471435 C41.6107441,41.8618101 41.4654108,42.0151435 41.3587441,42.2071435 L41.3587441,42.2071435 L41.3587441,41.6551435 L40.1427441,41.6551435 L40.1427441,45.3351435 L41.3587441,45.3351435 Z M46.0002256,45.3351435 L46.0002256,42.6551435 L46.6482256,42.6551435 L46.6482256,41.6551435 L46.0002256,41.6551435 L46.0002256,40.3751435 L44.8322256,40.3751435 L44.8322256,41.6551435 L44.1842256,41.6551435 L44.1842256,42.6551435 L44.8322256,42.6551435 L44.8322256,45.3351435 L46.0002256,45.3351435 Z" id="Ulixee"></path>
        </g>
    </g>
</svg>
