<?xml version="1.0" encoding="UTF-8"?>
<svg viewBox="0 0 36 36" version="1.1" xmlns="http://www.w3.org/2000/svg" xmlns:xlink="http://www.w3.org/1999/xlink">
   <g id="Page-1" stroke="none" stroke-width="1" fill="none" fill-rule="evenodd">
        <g id="Desktop" transform="translate(-37.000000, -32.000000)" fill="#FFFFFF" fill-rule="nonzero">
            <path d="M58.0708899,32.4540711 C59.3973308,32.0622 60.6502211,31.6920567 61.5968853,32.3995058 C62.3844244,32.9880507 62.7356528,34.1621871 62.7356528,36.2066246 C62.7356528,36.4487225 62.7303088,36.6903986 62.7204645,36.9300355 C65.2243467,37.4129657 69.7672519,38.6314012 69.7672519,41.173043 C69.7672519,43.795267 64.9190346,45.0217185 62.3110145,45.491359 L62.3110145,45.491359 L61.8913687,50.0336314 L67.0749229,53.6409121 C67.2458611,53.7598164 67.3552025,53.9483336 67.3736956,54.1557657 C67.3921184,54.3631276 67.317724,54.5680284 67.1704824,54.7152701 L67.1704824,54.7152701 L66.2170678,55.6686846 L68.674682,56.4880769 C71.2628731,57.3507838 73.0017875,59.7633957 73.0017875,62.4914452 L73.0017875,62.4914452 L73.0017875,67.2968401 C73.0017875,67.6851953 72.6869828,68 72.2986276,68 L72.2986276,68 L37.7031599,68 C37.3148047,68 37,67.6851953 37,67.2968401 L37,67.2968401 L37,62.4914452 C37,59.7633957 38.7389145,57.3508541 41.3271758,56.4880769 L41.3271758,56.4880769 L43.7847197,55.6686846 L42.8312348,54.7152701 C42.6839932,54.5680284 42.6095988,54.3631276 42.6280216,54.1557657 C42.6465147,53.9484039 42.7558561,53.7598164 42.9267943,53.6409121 L42.9267943,53.6409121 L48.1103485,50.0336314 L47.6907027,45.491359 C45.0829638,45.0217888 40.2345356,43.7953373 40.2345356,41.173043 C40.2345356,38.6333701 44.7702686,37.414372 47.2812527,36.9300355 C47.2714084,36.6906095 47.2661347,36.4488632 47.2661347,36.2066246 C47.2661347,34.1621871 47.6173631,32.9880507 48.4047616,32.3995058 C49.3514258,31.692127 50.6043161,32.0621297 51.9307569,32.4540711 C52.864272,32.7298504 53.9222465,33.042405 55.0008234,33.042405 C56.0794004,33.042405 57.1374452,32.7298504 58.0708899,32.4540711 Z M44.8964155,56.7805211 L41.7718541,57.8222525 C39.7587776,58.4932077 38.4063198,60.3696602 38.4063198,62.4914452 L38.4063198,62.4914452 L38.4063198,66.5936802 L46.1993708,66.5936802 L42.7517075,61.6520129 C42.6434911,61.4969662 42.6023563,61.3048629 42.637444,61.119088 C42.6725316,60.9333132 42.7810292,60.7694769 42.9383261,60.6646358 L42.9383261,60.6646358 L46.4436486,58.3277541 L44.8964155,56.7805211 Z M48.4165043,51.5338934 L44.4198137,54.3151721 L48.0444624,57.9398208 C48.1933917,58.0888204 48.2677157,58.2967448 48.2469725,58.5063568 C48.2262293,58.7159687 48.1125986,58.9052594 47.9373009,59.0221246 L47.9373009,59.0221246 L44.315957,61.4363538 L47.9140966,66.5936802 L52.7005061,66.5936802 C52.6979044,66.5828515 49.6265019,53.909941 49.5765072,53.7037746 C49.0610207,53.0537032 48.669431,52.3186198 48.4165043,51.5338934 L48.4165043,51.5338934 Z M57.5121591,59.7525671 C56.6967045,60.2717804 55.8419433,60.5465049 55.0008938,60.5465049 C54.1598442,60.5465049 53.305083,60.2717804 52.4896284,59.7525671 L52.4896284,59.7525671 L54.1476795,66.5936802 L55.854108,66.5936802 Z M61.5852129,51.5338934 C61.3322862,52.3186198 60.9407668,53.0536329 60.42521,53.7037746 L60.42521,53.7037746 L57.3011408,66.5936802 L62.0875503,66.5936802 L65.6856899,61.4363538 L62.064346,59.0221246 C61.8891186,58.9052594 61.7754176,58.7159687 61.7546744,58.5063568 C61.7339312,58.2966745 61.8082552,58.0888204 61.9571845,57.9398208 L61.9571845,57.9398208 L65.5818332,54.3151721 Z M65.1053017,56.7805211 L63.5580686,58.3277541 L67.0633911,60.6646358 C67.220688,60.7694769 67.3291152,60.9333132 67.3642732,61.119088 C67.3993609,61.3048629 67.3582261,61.4969662 67.2500097,61.6520129 L67.2500097,61.6520129 L63.8023464,66.5936802 L71.5954677,66.5936802 L71.5954677,62.4914452 C71.5954677,60.3696602 70.2430099,58.493278 68.2300037,57.8222525 L68.2300037,57.8222525 L65.1053017,56.7805211 Z M58.5847592,55.3272302 C57.5158155,55.9748404 56.2799416,56.3275455 55.0008938,56.3275455 C53.7218459,56.3275455 52.4860423,55.9748404 51.4170283,55.3272302 L51.4170283,55.3272302 L51.9179594,57.3939578 C52.5114264,58.0778511 53.650897,59.1402554 55.0008938,59.1402554 C56.3508905,59.1402554 57.4903611,58.0778511 58.0838281,57.3939578 L58.0838281,57.3939578 Z M60.8781856,45.7155967 C59.0396333,45.9643747 57.0274709,46.0951624 55.0009641,46.0951624 C52.9744572,46.0951624 50.9623651,45.9643747 49.1237426,45.7155967 L49.1237426,45.7155967 L49.5161058,49.9625419 C49.6214392,51.0312044 50.0502261,52.103031 50.8111154,52.9914032 C51.8609332,54.2179251 53.3879856,54.9212256 55.0008938,54.9212256 C56.613802,54.9212256 58.1408543,54.2178548 59.1905315,52.9915439 C59.9502957,52.104578 60.3804187,51.0335951 60.4861036,49.9584636 L60.4861036,49.9584636 Z M62.6052166,38.3401524 C62.4972816,39.2231806 62.3221948,40.0844108 62.0807297,40.9087252 C62.0040149,41.1707226 61.7825898,41.3645838 61.5127874,41.4060702 C59.4835382,41.717992 57.2924919,41.8762029 55.0008938,41.8762029 C52.7092956,41.8762029 50.5183196,41.7180623 48.4890001,41.4060702 C48.2191977,41.3645838 47.9977726,41.1707226 47.9210579,40.9087252 C47.6795927,40.0844108 47.5044356,39.2231806 47.3965709,38.3401524 C43.6146253,39.0921819 41.6408554,40.3073125 41.6408554,41.173043 C41.6408554,42.1282858 43.9809013,43.4730791 48.4533499,44.1950837 C50.4503241,44.5181154 52.7143584,44.6888426 55.0008938,44.6888426 C57.2874292,44.6888426 59.5514634,44.5181154 61.5482266,44.195154 C66.0208862,43.4730791 68.3609321,42.1282858 68.3609321,41.173043 C68.3609321,40.3073125 66.3871622,39.0922522 62.6052166,38.3401524 Z M51.5324169,33.8027318 C50.5535479,33.5135221 49.628963,33.2403445 49.2467252,33.5260383 C49.0322615,33.6863588 48.6724545,34.2476914 48.6724545,36.2066246 C48.6724545,37.484688 48.8230714,38.8096522 49.1517987,40.0821607 C50.9840224,40.3395173 52.9492138,40.4698831 55.0008938,40.4698831 C57.0525737,40.4698831 59.0178354,40.3395173 60.8499889,40.0821607 C61.1742159,38.8272312 61.329333,37.5019154 61.329333,36.2066246 C61.329333,34.2476914 60.969526,33.6862885 60.7550623,33.5260383 C60.3728949,33.2404148 59.4482396,33.5135221 58.4693707,33.8027318 C57.4444448,34.1055124 56.2828246,34.4487248 55.0008938,34.4487248 C53.7189629,34.4487248 52.5573427,34.1055124 51.5324169,33.8027318 Z M52.2966901,37.4636139 L52.3923111,37.4665465 C53.7240257,37.5965608 53.6544128,37.6572435 55.0008938,37.6572435 C55.389249,37.6572435 55.7040537,37.9720482 55.7040537,38.3604034 C55.7040537,38.7487586 55.389249,39.0635633 55.0008938,39.0635633 C53.563213,39.0635633 53.5467591,38.9922629 52.2556168,38.8661863 C51.8690898,38.8284266 51.5863492,38.4845111 51.6241089,38.0979841 C51.6618686,37.7115274 52.0056435,37.4285759 52.3923111,37.4665465 Z M57.8135334,37.6579466 C58.2029434,37.6579466 58.5159902,37.9715559 58.5159902,38.3604034 C58.5159902,38.6974982 58.2796581,38.9829108 57.9541654,39.0486563 C57.5186281,39.1366216 57.1110767,38.8075428 57.1110767,38.3604034 C57.1110767,37.9709934 57.424686,37.6579466 57.8135334,37.6579466 Z" id="logo-small"></path>
        </g>
    </g>
</svg>
