<?xml version="1.0" encoding="UTF-8"?>
<svg width="11px" height="14px" viewBox="0 0 11 14" version="1.1" xmlns="http://www.w3.org/2000/svg" xmlns:xlink="http://www.w3.org/1999/xlink">
    <title>lock</title>
    <g id="Page-1" stroke="none" stroke-width="1" fill="none" fill-rule="evenodd">
        <g id="SecretAgent-Browser" transform="translate(-450.000000, -43.000000)" fill="#000000" fill-rule="nonzero">
            <g id="Group-3" transform="translate(11.000000, 22.500000)">
                <path d="M449.723262,26.5 L448.374205,26.5 L448.374205,25.1666562 C448.374205,22.5934375 446.636283,20.5 444.5,20.5 C442.363717,20.5 440.625795,22.5934375 440.625795,25.1666562 L440.625795,26.5 L439.276738,26.5 C439.123776,26.5 439,26.6490937 439,26.8333438 L439,32.6666875 C439,33.4020313 439.496427,34 440.106927,34 L448.893099,34 C449.503573,34 450,33.4020313 450,32.6666563 L450,26.8333438 C450,26.6490937 449.876224,26.5 449.723262,26.5 Z M446.713828,26.5 L442.286172,26.5 L442.286172,25.1666562 C442.286172,23.6962812 443.279311,22.5 444.5,22.5 C445.720689,22.5 446.713828,23.6962812 446.713828,25.1666562 L446.713828,26.5 L446.713828,26.5 Z" id="lock"></path>
            </g>
        </g>
    </g>
</svg>