<?xml version="1.0" encoding="UTF-8"?>
<svg xmlns="http://www.w3.org/2000/svg" xmlns:xlink="http://www.w3.org/1999/xlink" width="14px" height="14px" viewBox="0 0 14 14" version="1.1">
<g id="surface1">
<path style=" stroke:none;fill-rule:nonzero;fill:rgb(0%,0%,0%);fill-opacity:1;" d="M 8.082031 4.472656 C 7.882812 4.472656 7.722656 4.636719 7.722656 4.835938 L 7.722656 8.804688 C 7.722656 9.007812 7.882812 9.167969 8.082031 9.167969 C 8.285156 9.167969 8.445312 9.007812 8.445312 8.804688 L 8.445312 4.835938 C 8.445312 4.632812 8.28125 4.472656 8.082031 4.472656 Z M 8.082031 4.472656 "/>
<path style=" stroke:none;fill-rule:nonzero;fill:rgb(0%,0%,0%);fill-opacity:1;" d="M 5.554688 4.472656 C 5.355469 4.472656 5.195312 4.636719 5.195312 4.835938 L 5.195312 8.804688 C 5.195312 9.007812 5.355469 9.167969 5.554688 9.167969 C 5.753906 9.167969 5.917969 9.007812 5.917969 8.804688 L 5.917969 4.835938 C 5.917969 4.632812 5.753906 4.472656 5.554688 4.472656 Z M 5.554688 4.472656 "/>
<path style=" stroke:none;fill-rule:nonzero;fill:rgb(0%,0%,0%);fill-opacity:1;" d="M 7 0.140625 C 3.210938 0.140625 0.140625 3.210938 0.140625 7 C 0.140625 10.789062 3.210938 13.859375 7 13.859375 C 10.789062 13.859375 13.859375 10.789062 13.859375 7 C 13.859375 3.210938 10.789062 0.140625 7 0.140625 Z M 7 13.136719 C 3.609375 13.136719 0.863281 10.390625 0.863281 7 C 0.863281 3.609375 3.609375 0.863281 7 0.863281 C 10.390625 0.863281 13.136719 3.609375 13.136719 7 C 13.136719 10.390625 10.390625 13.136719 7 13.136719 Z M 7 13.136719 "/>
</g>
</svg>
