<?xml version="1.0" encoding="UTF-8"?>
<svg xmlns="http://www.w3.org/2000/svg" xmlns:xlink="http://www.w3.org/1999/xlink" width="19pt" height="24pt" viewBox="0 0 19 24" version="1.1">
<g>
<path style=" stroke:1;fill-rule:nonzero;fill:rgb(0%,0%,0%);fill-opacity:1;" d="M 4.671875 3.195312 L 4.675781 3.105469 L 4.679688 3.007812 L 4.6875 2.914062 L 4.71875 2.710938 L 4.742188 2.605469 L 4.769531 2.503906 L 4.800781 2.394531 L 4.835938 2.289062 L 4.878906 2.183594 L 4.980469 1.972656 L 5.042969 1.867188 L 5.109375 1.765625 L 5.183594 1.664062 L 5.261719 1.5625 L 5.351562 1.464844 L 5.445312 1.371094 L 5.546875 1.277344 L 5.65625 1.191406 L 5.773438 1.105469 L 5.902344 1.027344 L 6.035156 0.949219 L 6.179688 0.878906 L 6.328125 0.816406 L 6.492188 0.753906 L 6.664062 0.699219 L 6.84375 0.652344 L 6.9375 0.625 L 7.132812 0.59375 L 7.238281 0.574219 L 7.339844 0.558594 L 7.445312 0.550781 L 7.558594 0.535156 L 7.667969 0.53125 C 7.78125 0.507812 7.867188 0.410156 7.867188 0.265625 C 7.867188 0 7.6875 0 7.445312 0 C 5.226562 0 3.210938 1.21875 3.195312 3 L 3.195312 8.476562 C 3.195312 9.410156 3.195312 10.1875 2.304688 10.976562 C 1.53125 11.667969 0.679688 11.722656 0.195312 11.746094 C 0.0859375 11.769531 0 11.867188 0 12.011719 C 0 12.25 0.132812 12.25 0.355469 12.269531 C 1.816406 12.371094 2.878906 13.230469 3.121094 14.410156 C 3.195312 14.675781 3.195312 14.71875 3.195312 15.585938 L 3.195312 20.339844 C 3.195312 21.347656 3.195312 22.121094 4.257812 23.03125 C 5.113281 23.753906 6.582031 24.015625 7.445312 24.015625 C 7.6875 24.015625 7.867188 24.015625 7.867188 23.753906 C 7.867188 23.515625 7.730469 23.515625 7.511719 23.488281 C 6.117188 23.394531 5.027344 22.621094 4.742188 21.402344 C 4.671875 21.183594 4.671875 21.140625 4.671875 20.273438 L 4.671875 15.226562 C 4.671875 14.117188 4.496094 13.710938 3.789062 12.945312 C 3.324219 12.4375 2.675781 12.199219 2.058594 12.011719 C 3.878906 11.460938 4.671875 10.351562 4.671875 8.957031 Z M 4.671875 3.195312 "/>
<path style=" stroke:1;fill-rule:nonzero;fill:rgb(0%,0%,0%);fill-opacity:1;" d="M 14.289062 20.824219 L 14.289062 20.914062 L 14.285156 21.011719 L 14.277344 21.109375 L 14.265625 21.210938 L 14.246094 21.3125 L 14.222656 21.410156 L 14.199219 21.519531 L 14.160156 21.625 L 14.125 21.730469 L 14.085938 21.835938 L 14.039062 21.941406 L 13.980469 22.046875 L 13.921875 22.148438 L 13.855469 22.253906 L 13.78125 22.355469 L 13.699219 22.457031 L 13.613281 22.554688 L 13.515625 22.644531 L 13.417969 22.738281 L 13.308594 22.828125 L 13.1875 22.910156 L 13.0625 22.992188 L 12.929688 23.066406 L 12.632812 23.207031 L 12.472656 23.261719 L 12.296875 23.320312 L 12.121094 23.371094 L 12.027344 23.390625 L 11.929688 23.40625 L 11.832031 23.425781 L 11.730469 23.441406 L 11.625 23.457031 L 11.519531 23.46875 L 11.410156 23.480469 L 11.296875 23.488281 C 11.1875 23.515625 11.101562 23.609375 11.101562 23.753906 C 11.101562 24.015625 11.347656 24.015625 11.539062 24.015625 C 13.695312 24.015625 15.75 22.84375 15.773438 21.019531 L 15.773438 15.542969 C 15.773438 14.597656 15.773438 13.832031 16.660156 13.042969 C 17.441406 12.34375 18.28125 12.292969 18.765625 12.269531 C 18.875 12.25 18.96875 12.148438 18.96875 12.011719 C 18.96875 11.769531 18.832031 11.769531 18.613281 11.746094 C 17.148438 11.648438 16.082031 10.78125 15.84375 9.605469 C 15.773438 9.34375 15.773438 9.296875 15.773438 8.433594 L 15.773438 3.667969 C 15.773438 2.667969 15.773438 1.890625 14.710938 0.980469 C 13.828125 0.234375 12.296875 0 11.539062 0 C 11.347656 0 11.101562 0 11.101562 0.265625 C 11.101562 0.507812 11.234375 0.507812 11.457031 0.53125 C 12.84375 0.617188 13.941406 1.394531 14.222656 2.613281 C 14.289062 2.835938 14.289062 2.878906 14.289062 3.746094 L 14.289062 8.792969 C 14.289062 9.894531 14.464844 10.296875 15.175781 11.074219 C 15.640625 11.570312 16.289062 11.8125 16.90625 12.011719 C 15.089844 12.558594 14.289062 13.667969 14.289062 15.0625 Z M 14.289062 20.824219 "/>
</g>
</svg>
