<?xml version="1.0" encoding="UTF-8"?>
<svg width="15px" height="15px" viewBox="0 0 15 15" version="1.1" xmlns="http://www.w3.org/2000/svg" xmlns:xlink="http://www.w3.org/1999/xlink">
    <title>clock</title>
    <g id="Page-1" stroke="none" stroke-width="1" fill="none" fill-rule="evenodd">
        <g id="Hero-Browser" transform="translate(-276.000000, -43.000000)" fill="#000000" fill-rule="nonzero">
            <g id="Group-3" transform="translate(11.000000, 22.500000)">
                <path d="M272.44,21 C276.266714,21 279.38,24.1132857 279.38,27.94 C279.38,31.7667143 276.266714,34.88 272.44,34.88 C268.613286,34.88 265.5,31.7667143 265.5,27.94 C265.5,24.1132857 268.613286,21 272.44,21 Z M272.44,22.4767143 C269.427571,22.4767143 266.976571,24.9274286 266.976571,27.94 C266.976571,30.9525714 269.427571,33.4032857 272.44,33.4032857 C275.452429,33.4032857 277.903429,30.9525714 277.903429,27.94 C277.903429,24.9274286 275.452429,22.4767143 272.44,22.4767143 Z M272.366571,23.4042857 C272.682143,23.4042857 272.938,23.6601429 272.938,23.9757143 L272.938,23.9757143 L272.938,27.7257143 L276.056857,27.7257143 C276.372429,27.7257143 276.628286,27.9815714 276.628286,28.2971429 C276.628286,28.6127143 276.372429,28.8685714 276.056857,28.8685714 L276.056857,28.8685714 L272.366571,28.8685714 C272.051,28.8685714 271.795143,28.6127143 271.795143,28.2971429 L271.795143,28.2971429 L271.795143,23.9757143 C271.795143,23.6601429 272.051,23.4042857 272.366571,23.4042857 Z" id="clock"></path>
            </g>
        </g>
    </g>
</svg>
