<svg width="24px" height="23px" viewBox="0 0 24 23" xmlns="http://www.w3.org/2000/svg">
    <g id="Page-1" stroke="none" stroke-width="1" fill="none" fill-rule="evenodd">
        <g id="Hero-Browser" transform="translate(-16.000000, -42.000000)" fill="#000000" fill-rule="nonzero">
            <g id="Group-3" transform="translate(11.000000, 22.500000)">
                <path d="M16.1710732,19.8229911 C16.6435247,19.3923519 17.3562566,19.3923051 17.8288956,19.823038 L17.8288956,19.823038 L28.59689,29.6347856 C28.9754981,29.9798313 29.1005602,30.5113451 28.9158264,30.9889997 C28.7308114,31.4665606 28.2802973,31.7751845 27.7681428,31.7751845 L27.7681428,31.7751845 L26.0479769,31.7751845 L26.0479769,41.6058696 C26.0479769,41.9956808 25.7319467,42.3116641 25.3421824,42.3116641 L25.3421824,42.3116641 L19.4402651,42.3116641 C19.0505008,42.3116641 18.7344707,41.9956339 18.7344707,41.6058696 L18.7344707,41.6058696 L18.7344707,35.6369682 L15.2656388,35.6369682 L15.2656388,41.6058228 C15.2656388,41.9956339 14.9496086,42.3116641 14.5598443,42.3116641 L14.5598443,42.3116641 L8.65764577,42.3116641 C8.26788148,42.3116641 7.95185131,41.9955871 7.95185131,41.6058228 L7.95185131,41.6058228 L7.95185131,31.7751845 L6.23201345,31.7751845 C5.71981208,31.7751845 5.26934487,31.4666075 5.08432988,30.9889997 C4.89936176,30.511392 5.02442383,29.9798313 5.40303191,29.6348325 L5.40303191,29.6348325 Z M25.8636181,20.9087999 C26.2534293,20.9087999 26.5694126,21.2247832 26.5694126,21.6145474 L26.5694126,21.6145474 L26.5694126,25.8604704 L21.1236812,20.9087999 Z" id="home"></path>
            </g>
        </g>
    </g>
</svg>
