<?xml version="1.0" encoding="UTF-8"?>
<svg width="14px" height="14px" viewBox="0 0 14 14" version="1.1" xmlns="http://www.w3.org/2000/svg" xmlns:xlink="http://www.w3.org/1999/xlink">
    <title>number</title>
    <g id="Page-1" stroke="none" stroke-width="1" fill="none" fill-rule="evenodd">
        <g id="Hero-Browser" transform="translate(-367.000000, -43.000000)" fill="#000000" fill-rule="nonzero">
            <g id="Group-3" transform="translate(11.000000, 22.500000)">
                <path d="M366.99327,21.1332726 C367.524953,21.2023049 367.90007,21.6892625 367.830934,22.2209978 L367.642598,23.6710907 L368.530431,23.6710907 C369.066571,23.6710907 369.501288,24.1057558 369.501288,24.6418963 C369.501288,25.1780369 369.066571,25.612702 368.530431,25.612702 L367.390465,25.612702 L366.867851,29.6374095 L368.530482,29.6374095 C369.066623,29.6374095 369.501288,30.0720746 369.501288,30.6082151 C369.501288,31.1443556 369.066571,31.5790207 368.530482,31.5790207 L366.615769,31.5790207 L366.39499,33.2791225 C366.325802,33.8121535 365.837393,34.1858193 365.307265,34.116787 C364.775581,34.0477547 364.400464,33.5607971 364.4696,33.0290618 L364.657936,31.5789689 L360.649554,31.5789689 L360.428775,33.2790707 C360.359535,33.8124644 359.87066,34.1857675 359.34105,34.1167352 C358.809366,34.0477029 358.434353,33.5607453 358.503385,33.02901 L358.691669,31.578917 L357.472409,31.578917 C356.936269,31.578917 356.501604,31.144252 356.501604,30.6081114 C356.501604,30.0719709 356.936269,29.6373058 357.472409,29.6373058 L358.943751,29.6373058 L359.466365,25.6125983 L357.472409,25.6125983 C356.936269,25.6125983 356.501604,25.1779332 356.501604,24.6417927 C356.501604,24.1056522 356.936269,23.6709871 357.472409,23.6709871 L359.718499,23.6709871 L359.939278,21.9708853 C360.00831,21.4392018 360.495527,21.064033 361.027003,21.1332208 C361.558686,21.2022531 361.9337,21.6892107 361.864667,22.220946 L361.676383,23.6710389 L365.684766,23.6710389 L365.905545,21.9709371 C365.974525,21.4392536 366.460654,21.0639812 366.99327,21.1332726 Z M365.43258,25.6128056 L361.424198,25.6128056 L360.901584,29.6374095 L364.910018,29.6374095 L365.43258,25.6128056 Z" id="number"></path>
            </g>
        </g>
    </g>
</svg>
